<svg xmlns="http://www.w3.org/2000/svg" width="25" height="25" viewBox="0 0 81 80" fill="none">
<g id="Group 900">
<g id="Group 899">
<path id="Vector" d="M40.5 0C18.4062 0 0.5 17.9062 0.5 40C0.5 62.0938 18.4062 80 40.5 80C62.5938 80 80.5 62.0938 80.5 40C80.5 17.9062 62.5938 0 40.5 0ZM40.5 72.5C22.5781 72.5 8 57.9203 8 40C8 22.0797 22.5781 7.5 40.5 7.5C58.4219 7.5 73 22.0797 73 40C73 57.9203 58.4219 72.5 40.5 72.5Z" fill="#2E2640"/>
<path id="Vector_2" d="M40.25 50.5C37.4375 50.5 35.25 52.6875 35.25 55.5C35.25 58.3125 37.2969 60.5 40.25 60.5C42.9219 60.5 45.25 58.3125 45.25 55.5C45.25 52.6875 42.9219 50.5 40.25 50.5ZM45.4219 18H37.4375C31.3438 18 26.5 22.8438 26.5 28.9375C26.5 30.9688 28.2188 32.6875 30.25 32.6875C32.2812 32.6875 34 30.9688 34 28.9375C34 27.0625 35.4219 25.5 37.2969 25.5H45.2812C47.2969 25.5 49 27.0625 49 28.9375C49 30.1875 48.375 31.1406 47.2812 31.7656L38.375 37.2188C37.125 38 36.5 39.25 36.5 40.5V43C36.5 45.0312 38.2188 46.75 40.25 46.75C42.2812 46.75 44 45.0312 44 43V42.6875L51.0469 38.3125C54.3281 36.2812 56.3594 32.6875 56.3594 28.9375C56.5 22.8438 51.6562 18 45.4219 18Z" fill="#855EDE"/>
</g>
</g>
</svg>