<svg className="mx-1 my-1" xmlns="http://www.w3.org/2000/svg" width="20" height="20" viewBox="0 0 48 48" fill="none">
<path d="M14.5714 26.5714C13.1464 26.5714 12 25.425 12 24C12 22.575 13.1464 21.4286 14.5714 21.4286H21.4286V14.5714C21.4286 13.1464 22.575 12 24 12C25.425 12 26.5714 13.1464 26.5714 14.5714V21.4286H33.4286C34.8536 21.4286 36 22.575 36 24C36 25.425 34.8536 26.5714 33.4286 26.5714H26.5714V33.4286C26.5714 34.8536 25.425 36 24 36C22.575 36 21.4286 34.8536 21.4286 33.4286V26.5714H14.5714Z" fill="#FF4545"/>
<path d="M41.1429 0C44.925 0 48 3.06964 48 6.85714V41.1429C48 44.925 44.925 48 41.1429 48H6.85714C3.06964 48 0 44.925 0 41.1429V6.85714C0 3.06964 3.06964 0 6.85714 0H41.1429ZM24 36C25.425 36 26.5714 34.8536 26.5714 33.4286V26.5714H33.4286C34.8536 26.5714 36 25.425 36 24C36 22.575 34.8536 21.4286 33.4286 21.4286H26.5714V14.5714C26.5714 13.1464 25.425 12 24 12C22.575 12 21.4286 13.1464 21.4286 14.5714V21.4286H14.5714C13.1464 21.4286 12 22.575 12 24C12 25.425 13.1464 26.5714 14.5714 26.5714H21.4286V33.4286C21.4286 34.8536 22.575 36 24 36Z" fill="#2E2640"/>
</svg>