<svg  className="absolute pl-1 pointer-events-none" xmlns="http://www.w3.org/2000/svg" width="20" height="20" viewBox="0 0 48 49" fill="none">
<path d="M46.904 41.7777L35.6823 30.5555C34.2732 32.6462 32.4704 34.45 30.3789 35.8591L41.6007 47.0813C43.065 48.5458 45.4397 48.5458 46.904 47.0813C48.3665 45.6216 48.3665 43.2403 46.904 41.7777Z" fill="#FF4545"/>
<path d="M19.4164 0.179688C8.7309 0.179688 0.000976562 8.91088 0.000976562 19.6803C0.000976562 30.4496 8.7309 39.1808 19.4164 39.1808C30.1019 39.1808 38.9162 30.4496 38.9162 19.6803C38.9162 8.91088 30.2725 0.179688 19.4164 0.179688ZM19.4164 31.6806C12.7996 31.6806 7.41654 26.2973 7.41654 19.6803C7.41654 13.0632 12.7996 7.67991 19.4164 7.67991C26.0332 7.67991 31.4163 13.0632 31.4163 19.6803C31.4163 26.2992 26.1195 31.6806 19.4164 31.6806Z" fill="#2E2640"/>
</svg>